<?xml version="1.0" encoding="UTF-8" standalone="no"?>
<!DOCTYPE svg PUBLIC "-//W3C//DTD SVG 1.1//EN" "http://www.w3.org/Graphics/SVG/1.1/DTD/svg11.dtd">
<svg width="100%" height="100%" viewBox="0 0 233 186" version="1.1" xmlns="http://www.w3.org/2000/svg" xmlns:xlink="http://www.w3.org/1999/xlink" xml:space="preserve" xmlns:serif="http://www.serif.com/" style="fill-rule:evenodd;clip-rule:evenodd;stroke-linecap:round;stroke-linejoin:round;stroke-miterlimit:1.5;">
    <g id="Artboard1" transform="matrix(1.10428,0,0,1.08119,14.2134,5.29101)">
        <rect x="-12.871" y="-4.894" width="210.984" height="171.55" style="fill:none;"/>
        <g id="background-cells">
            <g transform="matrix(0.905564,-1.52668e-16,-1.54145e-16,0.957535,-520.214,-603.894)">
                <rect x="624.251" y="656.474" width="32" height="30.91" style="fill:#faa;stroke:#000;stroke-width:0.44px;"/>
            </g>
            <g transform="matrix(0.905564,-1.52668e-16,-1.54145e-16,0.957535,-491.236,-603.894)">
                <rect x="624.251" y="656.474" width="32" height="30.91" style="fill:#faa;stroke:#000;stroke-width:0.44px;"/>
            </g>
            <g transform="matrix(0.905564,-1.52668e-16,-1.54145e-16,0.957535,-433.28,-603.894)">
                <rect x="624.251" y="656.474" width="32" height="30.91" style="fill:#faa;stroke:#000;stroke-width:0.44px;"/>
            </g>
            <g transform="matrix(0.905564,-1.52668e-16,-1.54145e-16,0.957535,-520.214,-574.297)">
                <rect x="624.251" y="656.474" width="32" height="30.91" style="fill:#faa;stroke:#000;stroke-width:0.44px;"/>
            </g>
            <g transform="matrix(0.905564,-1.52668e-16,-1.54145e-16,0.957535,-520.214,-544.7)">
                <rect x="624.251" y="656.474" width="32" height="30.91" style="fill:#faa;stroke:#000;stroke-width:0.44px;"/>
            </g>
            <g transform="matrix(0.905564,-1.52668e-16,-1.54145e-16,0.957535,-491.236,-544.7)">
                <rect x="624.251" y="656.474" width="32" height="30.91" style="fill:#faa;stroke:#000;stroke-width:0.44px;"/>
            </g>
            <g transform="matrix(0.905564,-1.52668e-16,-1.54145e-16,0.957535,-433.28,-544.7)">
                <rect x="624.251" y="656.474" width="32" height="30.91" style="fill:#faa;stroke:#000;stroke-width:0.44px;"/>
            </g>
            <g transform="matrix(0.905564,-1.52668e-16,-1.54145e-16,0.957535,-520.214,-515.103)">
                <rect x="624.251" y="656.474" width="32" height="30.91" style="fill:#faa;stroke:#000;stroke-width:0.44px;"/>
            </g>
            <g transform="matrix(0.905564,-1.52668e-16,-1.54145e-16,0.957535,-491.236,-515.103)">
                <rect x="624.251" y="656.474" width="32" height="30.91" style="fill:#faa;stroke:#000;stroke-width:0.44px;"/>
            </g>
            <g transform="matrix(0.905564,-1.52668e-16,-1.54145e-16,0.957535,-462.258,-515.103)">
                <rect x="624.251" y="656.474" width="32" height="30.91" style="fill:#faa;stroke:#000;stroke-width:0.44px;"/>
            </g>
            <g transform="matrix(0.905564,-1.52668e-16,-1.54145e-16,0.957535,-433.28,-515.103)">
                <rect x="624.251" y="656.474" width="32" height="30.91" style="fill:#faa;stroke:#000;stroke-width:0.44px;"/>
            </g>
        </g>
        <g id="nn-cell">
            <g transform="matrix(0.905564,-1.52668e-16,-1.54145e-16,0.957535,-462.258,-603.894)">
                <rect x="624.251" y="656.474" width="32" height="30.91" style="fill:#f00;stroke:#000;stroke-width:0.44px;"/>
            </g>
            <g transform="matrix(0.501343,-9.83105e-17,-5.13816e-17,0.494604,-40.9214,27.1791)">
                <text x="304.835px" y="32px" style="font-family:'JetBrainsMono-Regular', 'JetBrains Mono', monospace;font-size:18.7px;fill:#fff;">NN</text>
            </g>
        </g>
        <g id="nw-cell">
            <g transform="matrix(0.905564,-1.52668e-16,-1.54145e-16,0.957535,-491.236,-574.297)">
                <rect x="624.251" y="656.474" width="32" height="30.91" style="fill:#f00;stroke:#000;stroke-width:0.44px;"/>
            </g>
            <g transform="matrix(0.501343,-9.83105e-17,-5.13816e-17,0.494604,-61.6848,56.7761)">
                <text x="288px" y="32px" style="font-family:'JetBrainsMono-Regular', 'JetBrains Mono', monospace;font-size:18.7px;fill:#fff;">NW</text>
            </g>
        </g>
        <g id="n-cell">
            <g transform="matrix(0.905564,-1.52668e-16,-1.54145e-16,0.957535,-462.258,-574.297)">
                <rect x="624.251" y="656.474" width="32" height="30.91" style="fill:#f00;stroke:#000;stroke-width:0.44px;"/>
            </g>
            <g transform="matrix(0.501343,-7.37329e-17,-5.13816e-17,0.494604,-29.6695,56.7761)">
                <text x="288px" y="32px" style="font-family:'JetBrainsMono-Regular', 'JetBrains Mono', monospace;font-size:18.7px;fill:#fff;">N</text>
            </g>
        </g>
        <g id="ne-cell">
            <g transform="matrix(0.905564,-1.52668e-16,-1.54145e-16,0.957535,-433.28,-574.297)">
                <rect x="624.251" y="656.474" width="32" height="30.91" style="fill:#f00;stroke:#000;stroke-width:0.44px;"/>
            </g>
            <g transform="matrix(0.501343,-9.83105e-17,-5.13816e-17,0.494604,-3.36251,56.7761)">
                <text x="288.002px" y="32px" style="font-family:'JetBrainsMono-Regular', 'JetBrains Mono', monospace;font-size:18.7px;fill:#fff;">NE</text>
            </g>
        </g>
        <g id="questionmark-cell" transform="matrix(0.462804,0,0,0.820116,-26.1179,-519.316)">
            <g transform="matrix(1.95669,-1.86154e-16,-3.33067e-16,1.16756,-942.385,-30.9519)">
                <rect x="624.251" y="656.474" width="32" height="30.91" style="fill:#f00;stroke:#000;stroke-width:0.44px;"/>
            </g>
            <g transform="matrix(1.08327,-1.19874e-16,-1.11022e-16,0.60309,-11.3032,740.619)">
                <text x="288px" y="32px" style="font-family:'JetBrainsMono-Regular', 'JetBrains Mono', monospace;font-size:29.92px;fill:#fff;">?</text>
            </g>
        </g>
        <g id="row-labels">
            <g transform="matrix(0.905564,0,0,0.924908,-505.168,-822.296)">
                <text x="557.476px" y="940.526px" style="font-family:'JetBrainsMono-Regular', 'JetBrains Mono', monospace;font-size:24px;">R-2</text>
            </g>
            <g transform="matrix(0.905564,0,0,0.924908,-486.983,-819.33)">
                <text x="537.394px" y="969.2px" style="font-family:'JetBrainsMono-Regular', 'JetBrains Mono', monospace;font-size:24px;">R-1</text>
            </g>
            <g transform="matrix(0.905564,0,0,0.924908,-486.657,-789.733)">
                <text x="537.394px" y="969.2px" style="font-family:'JetBrainsMono-Regular', 'JetBrains Mono', monospace;font-size:24px;">R 0</text>
            </g>
            <g transform="matrix(0.905564,0,0,0.924908,-486.657,-760.136)">
                <text x="537.394px" y="969.2px" style="font-family:'JetBrainsMono-Regular', 'JetBrains Mono', monospace;font-size:24px;">R+1</text>
            </g>
        </g>
        <g id="col-labels" transform="matrix(0.986853,0,0,0.369895,-730.497,-313.1)">
            <g transform="matrix(0.917628,0,0,2.50046,269.132,-1462.31)">
                <text x="573.676px" y="940.526px" style="font-family:'JetBrainsMono-Regular', 'JetBrains Mono', monospace;font-size:18px;fill:#717171;">0</text>
            </g>
            <g transform="matrix(0.917628,0,0,2.50046,298.606,-1462.31)">
                <text x="573.676px" y="940.526px" style="font-family:'JetBrainsMono-Regular', 'JetBrains Mono', monospace;font-size:18px;fill:#717171;">1</text>
            </g>
            <g transform="matrix(0.917628,0,0,2.50046,327.97,-1462.31)">
                <text x="573.676px" y="940.526px" style="font-family:'JetBrainsMono-Regular', 'JetBrains Mono', monospace;font-size:18px;fill:#717171;">2</text>
            </g>
            <g transform="matrix(0.917628,0,0,2.50046,357.334,-1462.31)">
                <text x="573.676px" y="940.526px" style="font-family:'JetBrainsMono-Regular', 'JetBrains Mono', monospace;font-size:18px;fill:#717171;">3</text>
            </g>
        </g>
    </g>
</svg>
